<svg width="9" height="15" viewBox="0 0 9 15" fill="none" xmlns="http://www.w3.org/2000/svg">
<path d="M2.09 11.44C2.09 11.3533 2.07333 11.31 2.04 11.31L1.81 11.42C1.81 11.3733 1.78333 11.34 1.73 11.32L1.65 11.31C1.59667 11.31 1.53 11.3333 1.45 11.38C1.43667 11.3467 1.42 11.3133 1.4 11.28C1.38 11.2467 1.36333 11.2167 1.35 11.19C1.26333 11.0233 1.17667 10.84 1.09 10.64C1.01 10.4333 0.933333 10.2367 0.86 10.05C0.793333 9.86333 0.74 9.71667 0.7 9.61C0.673333 9.52333 0.643333 9.39333 0.61 9.22C0.576667 9.04667 0.543333 8.82667 0.51 8.56C0.583333 8.60667 0.64 8.63 0.68 8.63C0.726667 8.63 0.77 8.56 0.81 8.42C0.83 8.44667 0.866667 8.46 0.92 8.46C0.96 8.46 0.99 8.44667 1.01 8.42L1.17 8.18L1.35 8.24H1.36C1.37333 8.24 1.38667 8.23333 1.4 8.22C1.41333 8.20667 1.43333 8.19333 1.46 8.18C1.51333 8.14667 1.55333 8.13 1.58 8.13L1.61 8.14C1.77667 8.22 1.88333 8.36667 1.93 8.58C2.05 9.08667 2.17 9.34 2.29 9.34C2.41 9.34 2.55 9.21333 2.71 8.96C2.79 8.83333 2.87 8.68667 2.95 8.52C3.03667 8.35333 3.12333 8.16667 3.21 7.96C3.22333 8.04 3.23667 8.08 3.25 8.08C3.28333 8.08 3.34 7.99667 3.42 7.83C3.50667 7.66333 3.64333 7.43333 3.83 7.14C3.93667 6.96 4.07 6.75667 4.23 6.53C4.39667 6.30333 4.57333 6.07 4.76 5.83C4.94667 5.59 5.12667 5.36333 5.3 5.15C5.48 4.93667 5.64 4.75333 5.78 4.6C5.92 4.44667 6.02333 4.34667 6.09 4.3C6.34333 4.12667 6.54333 3.96 6.69 3.8C6.68333 3.84667 6.67333 3.89 6.66 3.93C6.65333 3.96333 6.65 3.98667 6.65 4C6.65 4.02667 6.66333 4.04 6.69 4.04L6.97 3.9V3.94C6.97 3.99333 6.98333 4.02 7.01 4.02C7.03 4.02 7.07 3.99 7.13 3.93C7.19 3.87 7.22333 3.82667 7.23 3.8L7.21 3.94L7.55 3.74L7.47 3.92C7.57667 3.84667 7.65333 3.81 7.7 3.81C7.72667 3.81 7.74667 3.82667 7.76 3.86C7.77333 3.88667 7.78 3.91333 7.78 3.94C7.78 3.98 7.76333 4.02667 7.73 4.08C7.69667 4.13333 7.65333 4.19667 7.6 4.27C7.56 4.32333 7.49333 4.40333 7.4 4.51C7.31333 4.61 7.18 4.76 7 4.96C6.82 5.15333 6.58 5.42333 6.28 5.77C6.2 5.85667 6.07667 6.01 5.91 6.23C5.74333 6.44333 5.55333 6.69333 5.34 6.98C5.13333 7.26 4.92667 7.54333 4.72 7.83C4.51333 8.11667 4.33 8.37667 4.17 8.61C4.01 8.83667 3.89667 9.00667 3.83 9.12L3.21 10.17C3.07667 10.3967 2.96667 10.5833 2.88 10.73C2.79333 10.87 2.72667 10.9667 2.68 11.02C2.58 11.14 2.47 11.2467 2.35 11.34L2.26 11.29L2.18 11.34L2.09 11.44Z" fill="white"/>
</svg>
